<svg width="37" height="38" viewBox="0 0 37 38" fill="none" xmlns="http://www.w3.org/2000/svg">
<path fill-rule="evenodd" clip-rule="evenodd" d="M10.9417 0.776504C12.8967 0.686504 13.5201 0.666504 18.5001 0.666504C23.4801 0.666504 24.1034 0.688171 26.0567 0.776504C28.0101 0.864837 29.3434 1.1765 30.5101 1.62817C31.7317 2.08984 32.8401 2.8115 33.7567 3.74484C34.6901 4.65984 35.4101 5.7665 35.8701 6.98984C36.3234 8.1565 36.6334 9.48984 36.7234 11.4398C36.8134 13.3982 36.8334 14.0215 36.8334 18.9998C36.8334 23.9798 36.8117 24.6032 36.7234 26.5582C36.6351 28.5082 36.3234 29.8415 35.8701 31.0082C35.4101 32.2317 34.6889 33.3402 33.7567 34.2565C32.8401 35.1898 31.7317 35.9098 30.5101 36.3698C29.3434 36.8232 28.0101 37.1332 26.0601 37.2232C24.1034 37.3132 23.4801 37.3332 18.5001 37.3332C13.5201 37.3332 12.8967 37.3115 10.9417 37.2232C8.99175 37.1348 7.65841 36.8232 6.49175 36.3698C5.26828 35.9098 4.15978 35.1886 3.24341 34.2565C2.31071 33.341 1.58894 32.233 1.12841 31.0098C0.676748 29.8432 0.366748 28.5098 0.276748 26.5598C0.186748 24.6015 0.166748 23.9782 0.166748 18.9998C0.166748 14.0198 0.188415 13.3965 0.276748 11.4432C0.365081 9.48984 0.676748 8.1565 1.12841 6.98984C1.58962 5.76664 2.31195 4.65869 3.24508 3.74317C4.16015 2.81067 5.26753 2.08891 6.49008 1.62817C7.65675 1.1765 8.99008 0.866504 10.9401 0.776504H10.9417ZM25.9084 4.0765C23.9751 3.98817 23.3951 3.96984 18.5001 3.96984C13.6051 3.96984 13.0251 3.98817 11.0917 4.0765C9.30341 4.15817 8.33341 4.4565 7.68675 4.70817C6.83175 5.0415 6.22008 5.4365 5.57841 6.07817C4.97016 6.66992 4.50205 7.39031 4.20841 8.1865C3.95675 8.83317 3.65841 9.80317 3.57675 11.5915C3.48841 13.5248 3.47008 14.1048 3.47008 18.9998C3.47008 23.8948 3.48841 24.4748 3.57675 26.4082C3.65841 28.1965 3.95675 29.1665 4.20841 29.8132C4.50175 30.6082 4.97008 31.3298 5.57841 31.9215C6.17008 32.5298 6.89175 32.9982 7.68675 33.2915C8.33341 33.5432 9.30341 33.8415 11.0917 33.9232C13.0251 34.0115 13.6034 34.0298 18.5001 34.0298C23.3967 34.0298 23.9751 34.0115 25.9084 33.9232C27.6967 33.8415 28.6667 33.5432 29.3134 33.2915C30.1684 32.9582 30.7801 32.5632 31.4217 31.9215C32.0301 31.3298 32.4984 30.6082 32.7917 29.8132C33.0434 29.1665 33.3417 28.1965 33.4234 26.4082C33.5117 24.4748 33.5301 23.8948 33.5301 18.9998C33.5301 14.1048 33.5117 13.5248 33.4234 11.5915C33.3417 9.80317 33.0434 8.83317 32.7917 8.1865C32.4584 7.3315 32.0634 6.71984 31.4217 6.07817C30.83 5.46996 30.1096 5.00185 29.3134 4.70817C28.6667 4.4565 27.6967 4.15817 25.9084 4.0765ZM16.1584 24.6515C17.4662 25.1959 18.9224 25.2694 20.2783 24.8594C21.6342 24.4494 22.8057 23.5814 23.5928 22.4036C24.3798 21.2258 24.7335 19.8113 24.5935 18.4017C24.4535 16.9921 23.8284 15.6748 22.8251 14.6748C22.1855 14.0356 21.4121 13.5462 20.5606 13.2417C19.7092 12.9373 18.8008 12.8254 17.9009 12.9142C17.001 13.003 16.132 13.2901 15.3564 13.7551C14.5808 14.22 13.918 14.8511 13.4156 15.6029C12.9132 16.3548 12.5837 17.2087 12.4509 18.1031C12.3182 18.9976 12.3853 19.9103 12.6476 20.7757C12.91 21.6411 13.3609 22.4375 13.9679 23.1077C14.575 23.7779 15.3231 24.3051 16.1584 24.6515ZM11.8367 12.3365C12.7118 11.4615 13.7506 10.7673 14.8939 10.2938C16.0372 9.8202 17.2626 9.57646 18.5001 9.57646C19.7376 9.57646 20.963 9.8202 22.1062 10.2938C23.2495 10.7673 24.2884 11.4615 25.1634 12.3365C26.0385 13.2115 26.7326 14.2504 27.2061 15.3937C27.6797 16.537 27.9235 17.7623 27.9235 18.9998C27.9235 20.2373 27.6797 21.4627 27.2061 22.606C26.7326 23.7493 26.0385 24.7881 25.1634 25.6632C23.3962 27.4304 20.9993 28.4232 18.5001 28.4232C16.0008 28.4232 13.604 27.4304 11.8367 25.6632C10.0695 23.8959 9.0767 21.4991 9.0767 18.9998C9.0767 16.5006 10.0695 14.1037 11.8367 12.3365ZM30.0134 10.9798C30.2303 10.7753 30.4038 10.5293 30.5239 10.2565C30.644 9.98361 30.7081 9.68945 30.7124 9.39139C30.7168 9.09332 30.6613 8.79742 30.5492 8.52119C30.4372 8.24496 30.2708 7.99402 30.06 7.78324C29.8492 7.57245 29.5983 7.4061 29.3221 7.29403C29.0458 7.18197 28.7499 7.12646 28.4519 7.13081C28.1538 7.13515 27.8596 7.19926 27.5868 7.31933C27.3139 7.4394 27.068 7.613 26.8634 7.82984C26.4656 8.25155 26.2478 8.81171 26.2562 9.39139C26.2647 9.97107 26.4987 10.5246 26.9087 10.9346C27.3186 11.3445 27.8722 11.5786 28.4519 11.587C29.0315 11.5955 29.5917 11.3777 30.0134 10.9798Z" fill="#612687"/>
</svg>
