<svg width="63" height="74" viewBox="0 0 63 74" fill="none" xmlns="http://www.w3.org/2000/svg">
<path d="M40.2498 70.2499C40.2498 71.2445 39.8547 72.1983 39.1515 72.9015C38.4482 73.6048 37.4944 73.9999 36.4998 73.9999H26.4998C25.5053 73.9999 24.5514 73.6048 23.8482 72.9015C23.1449 72.1983 22.7498 71.2445 22.7498 70.2499C22.7498 69.2553 23.1449 68.3015 23.8482 67.5982C24.5514 66.895 25.5053 66.4999 26.4998 66.4999H36.4998C37.4944 66.4999 38.4482 66.895 39.1515 67.5982C39.8547 68.3015 40.2498 69.2553 40.2498 70.2499ZM62.3939 48.513L58.5305 65.898C58.3036 66.9355 57.8145 67.8975 57.11 68.6921C56.4054 69.4868 55.5089 70.0876 54.5061 70.4371C53.8353 70.6743 53.1291 70.7958 52.4176 70.7965C51.0015 70.7952 49.6282 70.3105 48.5252 69.4224L40.1845 62.7499H22.8151L14.4745 69.4227C13.3713 70.3105 11.9981 70.7952 10.582 70.7965C9.87054 70.7958 9.16435 70.6743 8.49358 70.4371C7.49071 70.0875 6.5942 69.4867 5.88965 68.692C5.18511 67.8973 4.69606 66.9352 4.4692 65.8977L0.605768 48.5124C0.401372 47.5794 0.412182 46.6121 0.637376 45.684C0.862571 44.7558 1.29623 43.8911 1.90546 43.1555L10.8989 32.3633C11.2193 28.5492 12.0898 24.8014 13.4833 21.2365C17.2561 11.5215 23.937 5.17021 27.5833 2.24896C28.6997 1.36252 30.0845 0.882228 31.5101 0.886998C32.9356 0.891768 34.3172 1.38132 35.4276 2.27521C39.0273 5.19958 45.623 11.5552 49.358 21.2674C50.7063 24.7514 51.5629 28.4062 51.9033 32.1265L61.0942 43.1555C61.7035 43.8912 62.1372 44.756 62.3625 45.6842C62.5877 46.6125 62.5986 47.5799 62.3942 48.513H62.3939ZM20.4748 23.9515C16.7155 33.6311 17.8045 44.1515 23.7073 55.2499H39.2698C45.0405 44.158 46.0805 33.6405 42.3576 23.9593C39.4383 16.368 34.2461 11.1436 31.4836 8.7549C28.6867 11.1386 23.4223 16.3608 20.4748 23.9518V23.9515ZM16.702 58.0358C14.2612 53.4241 12.5076 48.4804 11.4967 43.3615L8.06014 47.4852L11.3555 62.313L16.702 58.0358ZM54.9395 47.4852L51.387 43.2221C50.4133 48.3769 48.6917 53.3619 46.2767 58.019L51.6442 62.313L54.9395 47.4852ZM31.4998 33.9999C32.4887 33.9999 33.4554 33.7066 34.2777 33.1572C35.0999 32.6078 35.7408 31.8269 36.1192 30.9133C36.4977 29.9997 36.5967 28.9944 36.4038 28.0244C36.2108 27.0545 35.7346 26.1636 35.0354 25.4644C34.3361 24.7651 33.4452 24.2889 32.4753 24.096C31.5054 23.903 30.5 24.0021 29.5864 24.3805C28.6728 24.7589 27.8919 25.3998 27.3425 26.222C26.7931 27.0443 26.4998 28.011 26.4998 28.9999C26.5013 30.3255 27.0286 31.5964 27.9659 32.5338C28.9033 33.4711 30.1742 33.9984 31.4998 33.9999Z" fill="#E6FF50"/>
</svg>
