<svg width="39" height="32" viewBox="0 0 39 32" fill="none" xmlns="http://www.w3.org/2000/svg">
<path d="M38.4051 4.2283C37.0134 4.84497 35.5184 5.26163 33.9468 5.44997C35.5684 4.47962 36.7817 2.95241 37.3601 1.1533C35.8365 2.05828 34.169 2.69529 32.4301 3.03663C31.2607 1.78807 29.7119 0.960509 28.024 0.682422C26.3361 0.404335 24.6036 0.691285 23.0955 1.49872C21.5874 2.30616 20.3881 3.5889 19.6837 5.14781C18.9793 6.70671 18.8093 8.45455 19.2001 10.12C16.1129 9.96496 13.0928 9.16255 10.3358 7.76481C7.5788 6.36707 5.1465 4.40523 3.19677 2.00663C2.5301 3.15663 2.14677 4.48997 2.14677 5.90997C2.14602 7.18829 2.46082 8.44704 3.06323 9.57452C3.66564 10.702 4.53704 11.6634 5.6001 12.3733C4.36723 12.3341 3.16156 12.0009 2.08343 11.4016V11.5016C2.08331 13.2945 2.70349 15.0323 3.83874 16.42C4.97399 17.8077 6.55439 18.7598 8.31177 19.115C7.16807 19.4245 5.969 19.4701 4.8051 19.2483C5.30093 20.791 6.26676 22.14 7.56738 23.1065C8.868 24.073 10.4383 24.6086 12.0584 24.6383C9.30816 26.7973 5.91158 27.9684 2.4151 27.9633C1.79574 27.9635 1.17689 27.9273 0.561768 27.855C4.11089 30.1369 8.24233 31.348 12.4618 31.3433C26.7451 31.3433 34.5534 19.5133 34.5534 9.2533C34.5534 8.91997 34.5451 8.5833 34.5301 8.24997C36.0489 7.15159 37.36 5.79146 38.4018 4.2333L38.4051 4.2283Z" fill="#612687"/>
</svg>
