<svg width="13" height="12" viewBox="0 0 13 12" fill="none" xmlns="http://www.w3.org/2000/svg">
<path fill-rule="evenodd" clip-rule="evenodd" d="M0.498538 6.00003C0.498538 5.80112 0.577555 5.61035 0.718207 5.4697C0.85886 5.32905 1.04963 5.25003 1.24854 5.25003L9.93804 5.25003L6.71754 2.03103C6.64781 1.9613 6.59249 1.87851 6.55475 1.78741C6.51701 1.6963 6.49759 1.59865 6.49759 1.50003C6.49759 1.40141 6.51701 1.30376 6.55475 1.21265C6.59249 1.12155 6.64781 1.03876 6.71754 0.96903C6.78727 0.899298 6.87005 0.843983 6.96116 0.806244C7.05227 0.768507 7.14992 0.749083 7.24854 0.749083C7.34715 0.749083 7.4448 0.768507 7.53591 0.806244C7.62702 0.843983 7.70981 0.899298 7.77954 0.96903L12.2795 5.46903C12.3494 5.5387 12.4048 5.62146 12.4426 5.71258C12.4804 5.8037 12.4999 5.90138 12.4999 6.00003C12.4999 6.09868 12.4804 6.19636 12.4426 6.28748C12.4048 6.3786 12.3494 6.46136 12.2795 6.53103L7.77954 11.031C7.63871 11.1719 7.4477 11.251 7.24854 11.251C7.04937 11.251 6.85837 11.1719 6.71754 11.031C6.57671 10.8902 6.49759 10.6992 6.49759 10.5C6.49759 10.3009 6.57671 10.1099 6.71754 9.96903L9.93804 6.75003L1.24854 6.75003C1.04963 6.75003 0.858859 6.67101 0.718207 6.53036C0.577555 6.38971 0.498538 6.19894 0.498538 6.00003Z" fill="#612687"/>
</svg>
