<svg width="27" height="29" viewBox="0 0 27 29" fill="none" xmlns="http://www.w3.org/2000/svg">
<path d="M21.4999 19C20.7514 19.0037 20.0133 19.1755 19.34 19.5026C18.6667 19.8297 18.0755 20.3038 17.6099 20.89L10.2999 16.32C10.5664 15.4601 10.5664 14.5398 10.2999 13.68L17.6099 9.10996C18.3519 10.0287 19.3951 10.6551 20.5547 10.8784C21.7143 11.1016 22.9155 10.9072 23.9455 10.3296C24.9755 9.75198 25.7678 8.82845 26.1821 7.72261C26.5963 6.61676 26.6058 5.39998 26.2089 4.28779C25.8119 3.17561 25.0341 2.23982 24.0133 1.64619C22.9925 1.05256 21.7944 0.83941 20.6315 1.0445C19.4685 1.24958 18.4157 1.85967 17.6595 2.76668C16.9033 3.67369 16.4925 4.81908 16.4999 5.99996C16.5047 6.44714 16.572 6.89145 16.6999 7.31996L9.38994 11.89C8.74459 11.0775 7.86248 10.486 6.86589 10.1974C5.8693 9.9087 4.8076 9.93723 3.82795 10.279C2.8483 10.6207 1.99923 11.2588 1.39843 12.1047C0.797625 12.9506 0.474854 13.9624 0.474854 15C0.474854 16.0375 0.797625 17.0494 1.39843 17.8953C1.99923 18.7412 2.8483 19.3792 3.82795 19.7209C4.8076 20.0627 5.8693 20.0912 6.86589 19.8026C7.86248 19.5139 8.74459 18.9224 9.38994 18.11L16.6999 22.68C16.572 23.1085 16.5047 23.5528 16.4999 24C16.4999 24.9889 16.7932 25.9556 17.3426 26.7778C17.892 27.6001 18.6729 28.2409 19.5865 28.6194C20.5002 28.9978 21.5055 29.0968 22.4754 28.9039C23.4453 28.711 24.3362 28.2348 25.0355 27.5355C25.7347 26.8362 26.2109 25.9453 26.4039 24.9754C26.5968 24.0055 26.4978 23.0002 26.1193 22.0865C25.7409 21.1729 25.1 20.392 24.2778 19.8426C23.4555 19.2932 22.4888 19 21.4999 19ZM21.4999 2.99996C22.0933 2.99996 22.6733 3.17591 23.1666 3.50555C23.66 3.8352 24.0445 4.30373 24.2716 4.85191C24.4986 5.40009 24.5581 6.00329 24.4423 6.58523C24.3265 7.16717 24.0408 7.70172 23.6213 8.12128C23.2017 8.54084 22.6672 8.82656 22.0852 8.94232C21.5033 9.05807 20.9001 8.99866 20.3519 8.7716C19.8037 8.54454 19.3352 8.16002 19.0055 7.66667C18.6759 7.17332 18.4999 6.5933 18.4999 5.99996C18.4999 5.20431 18.816 4.44125 19.3786 3.87864C19.9412 3.31603 20.7043 2.99996 21.4999 2.99996ZM5.49994 18C4.9066 18 4.32658 17.824 3.83323 17.4944C3.33988 17.1647 2.95536 16.6962 2.7283 16.148C2.50124 15.5998 2.44183 14.9966 2.55758 14.4147C2.67334 13.8327 2.95906 13.2982 3.37862 12.8786C3.79818 12.4591 4.33273 12.1734 4.91467 12.0576C5.49661 11.9418 6.09981 12.0013 6.64799 12.2283C7.19617 12.4554 7.6647 12.8399 7.99435 13.3332C8.32399 13.8266 8.49994 14.4066 8.49994 15C8.49994 15.7956 8.18387 16.5587 7.62126 17.1213C7.05865 17.6839 6.29559 18 5.49994 18ZM21.4999 27C20.9066 27 20.3266 26.824 19.8332 26.4944C19.3399 26.1647 18.9554 25.6962 18.7283 25.148C18.5012 24.5998 18.4418 23.9966 18.5576 23.4147C18.6733 22.8327 18.9591 22.2982 19.3786 21.8786C19.7982 21.4591 20.3327 21.1734 20.9147 21.0576C21.4966 20.9418 22.0998 21.0013 22.648 21.2283C23.1962 21.4554 23.6647 21.8399 23.9943 22.3333C24.324 22.8266 24.4999 23.4066 24.4999 24C24.4999 24.7956 24.1839 25.5587 23.6213 26.1213C23.0587 26.6839 22.2956 27 21.4999 27Z" fill="#102572"/>
</svg>
